<svg width="512" height="512" viewBox="0 0 512 512" fill="none" xmlns="http://www.w3.org/2000/svg">
<path d="M384 320C366.33 320 352 334.33 352 352V448H64V160H160C177.67 160 192 145.68 192 128C192 110.32 177.67 96 160 96H64C28.65 96 0 124.65 0 160V448C0 483.34 28.65 512 64 512H352C387.35 512 416 483.34 416 448V352C416 334.3 401.7 320 384 320ZM488 0H352C339.06 0 327.38 7.797 322.44 19.75C317.471 31.72 320.221 45.47 329.378 54.63L370.8 96L169.4 297.4C156.9 309.9 156.9 330.15 169.4 342.65C175.6 348.9 183.8 352 192 352C200.2 352 208.38 348.875 214.62 342.625L416 141.3L457.38 182.68C466.536 191.821 480.26 194.52 492.26 189.618C504.2 184.6 512 172.9 512 160V24C512 10.74 501.3 0 488 0Z" fill="white"/>
</svg>
