<?xml version="1.0" encoding="utf-8"?>
<!-- Generator: Adobe Illustrator 24.0.1, SVG Export Plug-In . SVG Version: 6.00 Build 0)  -->
<svg version="1.1" id="Capa_1" xmlns="http://www.w3.org/2000/svg" xmlns:xlink="http://www.w3.org/1999/xlink" x="0px" y="0px"
	 viewBox="0 0 676.4 147.2" style="enable-background:new 0 0 676.4 147.2;" xml:space="preserve">
<style type="text/css">
	.st0{fill:#3D82EA;}
	.st1{fill:#1757BD;}
</style>
<g>
	<g>
		<path class="st0" d="M122.6,36.1h-13.2v56l-44.4-56l-13.4,0l103.8-18.5c3-0.5,5.3,2.5,4.1,5.2l-36.9,84.9V36.1z"/>
		<path class="st1" d="M49.9,111.1h13.2v-56l44.4,56l13.4,0L17.1,129.7c-3,0.5-5.3-2.5-4.1-5.2l36.9-84.9V111.1z"/>
	</g>
	<path d="M286.7,36.1h14.1v75h-14.1V36.1z"/>
	<path d="M349.9,70h35.6c0.2,0.8,0.4,1.8,0.5,2.9c0.1,1.2,0.2,2.3,0.2,3.4c0,4.7-0.7,9.1-2.1,13.2c-1.4,4.1-3.7,7.8-6.7,11.1
		c-3.2,3.4-7.1,6.1-11.7,8c-4.5,1.9-9.7,2.8-15.5,2.8c-5.3,0-10.2-0.9-14.9-2.8s-8.7-4.5-12.2-7.9c-3.4-3.4-6.2-7.4-8.2-12
		c-2-4.6-3-9.7-3-15.2c0-5.5,1-10.5,3-15.2s4.8-8.6,8.2-12c3.4-3.4,7.5-6,12.2-7.9s9.6-2.8,14.9-2.8c5.9,0,11.1,1,15.8,3
		c4.6,2,8.6,4.8,11.9,8.4l-9.4,9.2c-2.4-2.5-5-4.4-7.9-5.7c-2.9-1.3-6.4-2-10.4-2c-3.3,0-6.5,0.6-9.4,1.8c-3,1.2-5.6,2.9-7.8,5
		c-2.2,2.2-4,4.8-5.3,7.9c-1.3,3.1-2,6.5-2,10.3c0,3.8,0.7,7.2,2,10.3c1.3,3.1,3.1,5.7,5.4,7.9c2.3,2.2,4.9,3.8,7.9,5
		c3,1.2,6.2,1.8,9.5,1.8c3.9,0,7.1-0.6,9.8-1.7c2.7-1.1,5-2.6,6.8-4.3c1.4-1.2,2.5-2.8,3.5-4.6c1-1.9,1.7-3.9,2.3-6.2h-22.8V70z"/>
	<path d="M479,111.1V49.5h-20.9V36.1h56v13.4h-20.9v61.6H479z"/>
	<path d="M558.9,111.1c-5.3,0-10.3-1-14.9-2.9c-4.6-1.9-8.5-4.6-11.9-8c-3.3-3.4-6-7.4-7.9-11.9c-1.9-4.6-2.9-9.5-2.9-14.7
		s1-10.1,2.9-14.7c1.9-4.6,4.5-8.6,7.9-11.9c3.3-3.4,7.3-6,11.9-8c4.6-1.9,9.5-2.9,14.9-2.9c5.3,0,10.3,1,14.9,2.9
		c4.6,1.9,8.5,4.6,11.9,8c3.3,3.4,6,7.4,7.9,11.9c1.9,4.6,2.9,9.5,2.9,14.7s-1,10.1-2.9,14.7c-1.9,4.6-4.5,8.6-7.9,11.9
		c-3.3,3.4-7.3,6-11.9,8C569.2,110.1,564.3,111.1,558.9,111.1z M558.9,98.2c3.3,0,6.5-0.6,9.4-1.8s5.4-2.9,7.6-5
		c2.2-2.1,3.9-4.7,5.1-7.8c1.2-3,1.9-6.4,1.9-10.1c0-3.7-0.6-7-1.9-10.1c-1.2-3-2.9-5.6-5.1-7.8c-2.2-2.1-4.7-3.8-7.6-5
		s-6-1.8-9.4-1.8c-3.3,0-6.5,0.6-9.4,1.8s-5.4,2.9-7.6,5c-2.2,2.1-3.9,4.7-5.1,7.8c-1.2,3-1.9,6.4-1.9,10.1c0,3.7,0.6,7,1.9,10.1
		c1.2,3,2.9,5.6,5.1,7.8c2.2,2.1,4.7,3.8,7.6,5S555.6,98.2,558.9,98.2z"/>
	<path d="M607.5,36.1h27.3c3.8,0,7.2,0.6,10.3,1.8c3.1,1.2,5.7,2.8,7.9,4.9c2.2,2.1,3.9,4.6,5.1,7.5c1.2,2.9,1.8,6.1,1.8,9.5
		c0,2.5-0.4,4.9-1.3,7.1c-0.8,2.2-2,4.2-3.5,6c-1.5,1.8-3.2,3.4-5.1,4.7c-2,1.4-4,2.4-6.2,3.2l-0.1,0.7l20.1,28.8v0.8h-16.2
		l-19.4-28.2h-6.6v28.2h-14.1V36.1z M634.7,69.9c3.2,0,5.8-1,7.9-2.9c2.1-2,3.1-4.4,3.1-7.4c0-1.3-0.2-2.6-0.7-3.9
		c-0.5-1.3-1.1-2.4-2-3.4c-0.9-1-2-1.8-3.4-2.4c-1.4-0.6-2.9-0.9-4.7-0.9h-13.3v20.8H634.7z"/>
	<path d="M418.1,36.1h16.1l28.2,75h-15.6l-6.2-17.9h-28.9l-6.2,17.9h-15.6L418.1,36.1z M436,80.2l-9.8-27.9l-9.8,27.9H436z"/>
	<path d="M170.6,36.1h16.1l28.2,75h-15.6l-6.2-17.9h-28.9l-6.2,17.9h-15.6L170.6,36.1z M188.5,80.2l-9.8-27.9l-9.8,27.9H188.5z"/>
	<path d="M206.9,36.1h15.3l19.1,54.8l19.1-54.8h15.3l-27.3,75h-14.9L206.9,36.1z"/>
</g>
</svg>
